<?xml version="1.0" encoding="UTF-8"?><svg xmlns="http://www.w3.org/2000/svg" xmlns:xlink="http://www.w3.org/1999/xlink" fill-opacity="1" color-rendering="auto" color-interpolation="auto" text-rendering="auto" stroke="black" stroke-linecap="square" width="279" stroke-miterlimit="10" shape-rendering="auto" stroke-opacity="1" fill="black" stroke-dasharray="none" font-weight="normal" stroke-width="1" height="157" font-family="'Dialog'" font-style="normal" stroke-linejoin="miter" font-size="12px" stroke-dashoffset="0" image-rendering="auto">
  <!--Generated by ySVG 2.6-->
  <defs id="genericDefs"/>
  <g>
    <defs id="defs1">
      <clipPath clipPathUnits="userSpaceOnUse" id="clipPath1">
        <path d="M0 0 L279 0 L279 157 L0 157 L0 0 Z"/>
      </clipPath>
      <clipPath clipPathUnits="userSpaceOnUse" id="clipPath2">
        <path d="M135 55 L414 55 L414 212 L135 212 L135 55 Z"/>
      </clipPath>
      <clipPath clipPathUnits="userSpaceOnUse" id="clipPath3">
        <path d="M225 70 L225 98 L325 98 L325 70 Z"/>
      </clipPath>
      <clipPath clipPathUnits="userSpaceOnUse" id="clipPath4">
        <path d="M150 169 L150 197 L250 197 L250 169 Z"/>
      </clipPath>
      <clipPath clipPathUnits="userSpaceOnUse" id="clipPath5">
        <path d="M299 169 L299 197 L399 197 L399 169 Z"/>
      </clipPath>
    </defs>
    <g fill="white" text-rendering="geometricPrecision" shape-rendering="geometricPrecision" transform="translate(-135,-55)" stroke="white">
      <rect x="135" width="279" height="157" y="55" clip-path="url(#clipPath2)" stroke="none"/>
    </g>
    <g fill="rgb(255,204,0)" text-rendering="geometricPrecision" shape-rendering="geometricPrecision" transform="matrix(1,0,0,1,-135,-55)" stroke="rgb(255,204,0)">
      <rect x="226" width="98" height="26" y="71" clip-path="url(#clipPath2)" stroke="none"/>
      <rect x="225" y="70" clip-path="url(#clipPath2)" fill="yellow" width="1" height="28" stroke="none"/>
      <rect x="226" y="70" clip-path="url(#clipPath2)" fill="yellow" width="98" height="1" stroke="none"/>
      <rect x="226" y="97" clip-path="url(#clipPath2)" fill="rgb(178,142,0)" width="99" height="1" stroke="none"/>
      <rect x="324" y="70" clip-path="url(#clipPath2)" fill="rgb(178,142,0)" width="1" height="27" stroke="none"/>
    </g>
    <g font-size="13px" stroke-linecap="butt" transform="matrix(1,0,0,1,-135,-55)" text-rendering="geometricPrecision" font-family="sans-serif" shape-rendering="geometricPrecision" font-weight="bold" stroke-miterlimit="1.45">
      <text x="244.801" xml:space="preserve" y="87.0669" clip-path="url(#clipPath3)" stroke="none">Building</text>
    </g>
    <g fill="rgb(255,204,0)" text-rendering="geometricPrecision" shape-rendering="geometricPrecision" transform="matrix(1,0,0,1,-135,-55)" stroke="rgb(255,204,0)">
      <rect x="151" width="98" height="26" y="170" clip-path="url(#clipPath2)" stroke="none"/>
      <rect x="150" y="169" clip-path="url(#clipPath2)" fill="yellow" width="1" height="28" stroke="none"/>
      <rect x="151" y="169" clip-path="url(#clipPath2)" fill="yellow" width="98" height="1" stroke="none"/>
      <rect x="151" y="196" clip-path="url(#clipPath2)" fill="rgb(178,142,0)" width="99" height="1" stroke="none"/>
      <rect x="249" y="169" clip-path="url(#clipPath2)" fill="rgb(178,142,0)" width="1" height="27" stroke="none"/>
    </g>
    <g font-size="13px" stroke-linecap="butt" transform="matrix(1,0,0,1,-135,-55)" text-rendering="geometricPrecision" font-family="sans-serif" shape-rendering="geometricPrecision" font-weight="bold" stroke-miterlimit="1.45">
      <text x="183.988" xml:space="preserve" y="186.0669" clip-path="url(#clipPath4)" stroke="none">Wall</text>
    </g>
    <g fill="rgb(255,204,0)" text-rendering="geometricPrecision" shape-rendering="geometricPrecision" transform="matrix(1,0,0,1,-135,-55)" stroke="rgb(255,204,0)">
      <rect x="300" width="98" height="26" y="170" clip-path="url(#clipPath2)" stroke="none"/>
      <rect x="299" y="169" clip-path="url(#clipPath2)" fill="yellow" width="1" height="28" stroke="none"/>
      <rect x="300" y="169" clip-path="url(#clipPath2)" fill="yellow" width="98" height="1" stroke="none"/>
      <rect x="300" y="196" clip-path="url(#clipPath2)" fill="rgb(178,142,0)" width="99" height="1" stroke="none"/>
      <rect x="398" y="169" clip-path="url(#clipPath2)" fill="rgb(178,142,0)" width="1" height="27" stroke="none"/>
    </g>
    <g font-size="13px" stroke-linecap="butt" transform="matrix(1,0,0,1,-135,-55)" text-rendering="geometricPrecision" font-family="sans-serif" shape-rendering="geometricPrecision" font-weight="bold" stroke-miterlimit="1.45">
      <text x="332.2358" xml:space="preserve" y="186.0669" clip-path="url(#clipPath5)" stroke="none">Roof</text>
      <path fill="none" d="M260.1712 103.574 L215.4434 162.6148" clip-path="url(#clipPath2)"/>
    </g>
    <g stroke-linecap="butt" transform="matrix(1,0,0,1,-135,-55)" fill="white" text-rendering="geometricPrecision" shape-rendering="geometricPrecision" stroke="white" stroke-miterlimit="1.45">
      <path d="M264.3982 97.9944 L264.1567 106.5933 L255.9442 109.1537 L256.1857 100.5547 Z" stroke="none" clip-path="url(#clipPath2)"/>
      <path fill="none" d="M264.3982 97.9944 L264.1567 106.5933 L255.9442 109.1537 L256.1857 100.5547 Z" clip-path="url(#clipPath2)" stroke="black"/>
      <path fill="black" d="M210.6125 168.9915 L221.8443 162.4457 L216.0472 161.8177 L213.8733 156.4071 Z" clip-path="url(#clipPath2)" stroke="none"/>
      <path fill="none" d="M289.6514 103.6012 L333.7394 162.5837" clip-path="url(#clipPath2)" stroke="black"/>
      <path d="M285.4604 97.9944 L293.6562 100.6077 L293.8423 109.208 L285.6465 106.5947 Z" clip-path="url(#clipPath2)" stroke="none"/>
      <path fill="none" d="M285.4604 97.9944 L293.6562 100.6077 L293.8423 109.208 L285.6465 106.5947 Z" clip-path="url(#clipPath2)" stroke="black"/>
      <path fill="black" d="M338.529 168.9915 L335.3494 156.3864 L333.1407 161.7828 L327.3397 162.3734 Z" clip-path="url(#clipPath2)" stroke="none"/>
    </g>
  </g>
</svg>
