<?xml version="1.0" encoding="UTF-8"?><svg xmlns="http://www.w3.org/2000/svg" xmlns:xlink="http://www.w3.org/1999/xlink" fill-opacity="1" color-rendering="auto" color-interpolation="auto" text-rendering="auto" stroke="black" stroke-linecap="square" width="285" stroke-miterlimit="10" shape-rendering="auto" stroke-opacity="1" fill="black" stroke-dasharray="none" font-weight="normal" stroke-width="1" height="174" font-family="'Dialog'" font-style="normal" stroke-linejoin="miter" font-size="12px" stroke-dashoffset="0" image-rendering="auto">
  <!--Generated by ySVG 2.6-->
  <defs id="genericDefs"/>
  <g>
    <defs id="defs1">
      <clipPath clipPathUnits="userSpaceOnUse" id="clipPath1">
        <path d="M0 0 L285 0 L285 174 L0 174 L0 0 Z"/>
      </clipPath>
      <clipPath clipPathUnits="userSpaceOnUse" id="clipPath2">
        <path d="M195 51 L480 51 L480 225 L195 225 L195 51 Z"/>
      </clipPath>
      <clipPath clipPathUnits="userSpaceOnUse" id="clipPath3">
        <path d="M210 120 L210 148 L310 148 L310 120 Z"/>
      </clipPath>
      <clipPath clipPathUnits="userSpaceOnUse" id="clipPath4">
        <path d="M365 66 L365 94 L465 94 L465 66 Z"/>
      </clipPath>
      <clipPath clipPathUnits="userSpaceOnUse" id="clipPath5">
        <path d="M365 182 L365 210 L465 210 L465 182 Z"/>
      </clipPath>
      <clipPath clipPathUnits="userSpaceOnUse" id="clipPath6">
        <path d="M365 120 L365 148 L465 148 L465 120 Z"/>
      </clipPath>
    </defs>
    <g fill="white" text-rendering="geometricPrecision" shape-rendering="geometricPrecision" transform="translate(-195,-51)" stroke="white">
      <rect x="195" width="285" height="174" y="51" clip-path="url(#clipPath2)" stroke="none"/>
    </g>
    <g fill="rgb(255,204,0)" text-rendering="geometricPrecision" shape-rendering="geometricPrecision" transform="matrix(1,0,0,1,-195,-51)" stroke="rgb(255,204,0)">
      <rect x="211" width="98" height="26" y="121" clip-path="url(#clipPath2)" stroke="none"/>
      <rect x="210" y="120" clip-path="url(#clipPath2)" fill="yellow" width="1" height="28" stroke="none"/>
      <rect x="211" y="120" clip-path="url(#clipPath2)" fill="yellow" width="98" height="1" stroke="none"/>
      <rect x="211" y="147" clip-path="url(#clipPath2)" fill="rgb(178,142,0)" width="99" height="1" stroke="none"/>
      <rect x="309" y="120" clip-path="url(#clipPath2)" fill="rgb(178,142,0)" width="1" height="27" stroke="none"/>
    </g>
    <g font-size="13px" stroke-linecap="butt" transform="matrix(1,0,0,1,-195,-51)" text-rendering="geometricPrecision" font-family="sans-serif" shape-rendering="geometricPrecision" font-weight="bold" stroke-miterlimit="1.45">
      <text x="239.4526" xml:space="preserve" y="137.0669" clip-path="url(#clipPath3)" stroke="none">Artist</text>
    </g>
    <g fill="rgb(255,204,0)" text-rendering="geometricPrecision" shape-rendering="geometricPrecision" transform="matrix(1,0,0,1,-195,-51)" stroke="rgb(255,204,0)">
      <rect x="366" width="98" height="26" y="67" clip-path="url(#clipPath2)" stroke="none"/>
      <rect x="365" y="66" clip-path="url(#clipPath2)" fill="yellow" width="1" height="28" stroke="none"/>
      <rect x="366" y="66" clip-path="url(#clipPath2)" fill="yellow" width="98" height="1" stroke="none"/>
      <rect x="366" y="93" clip-path="url(#clipPath2)" fill="rgb(178,142,0)" width="99" height="1" stroke="none"/>
      <rect x="464" y="66" clip-path="url(#clipPath2)" fill="rgb(178,142,0)" width="1" height="27" stroke="none"/>
    </g>
    <g font-size="13px" stroke-linecap="butt" transform="matrix(1,0,0,1,-195,-51)" text-rendering="geometricPrecision" font-family="sans-serif" shape-rendering="geometricPrecision" font-weight="bold" stroke-miterlimit="1.45">
      <text x="388.7239" xml:space="preserve" y="83.0669" clip-path="url(#clipPath4)" stroke="none">Canvas</text>
    </g>
    <g fill="rgb(255,204,0)" text-rendering="geometricPrecision" shape-rendering="geometricPrecision" transform="matrix(1,0,0,1,-195,-51)" stroke="rgb(255,204,0)">
      <rect x="366" width="98" height="26" y="183" clip-path="url(#clipPath2)" stroke="none"/>
      <rect x="365" y="182" clip-path="url(#clipPath2)" fill="yellow" width="1" height="28" stroke="none"/>
      <rect x="366" y="182" clip-path="url(#clipPath2)" fill="yellow" width="98" height="1" stroke="none"/>
      <rect x="366" y="209" clip-path="url(#clipPath2)" fill="rgb(178,142,0)" width="99" height="1" stroke="none"/>
      <rect x="464" y="182" clip-path="url(#clipPath2)" fill="rgb(178,142,0)" width="1" height="27" stroke="none"/>
    </g>
    <g font-size="13px" stroke-linecap="butt" transform="matrix(1,0,0,1,-195,-51)" text-rendering="geometricPrecision" font-family="sans-serif" shape-rendering="geometricPrecision" font-weight="bold" stroke-miterlimit="1.45">
      <text x="395.8872" xml:space="preserve" y="199.0669" clip-path="url(#clipPath5)" stroke="none">Paint</text>
    </g>
    <g fill="rgb(255,204,0)" text-rendering="geometricPrecision" shape-rendering="geometricPrecision" transform="matrix(1,0,0,1,-195,-51)" stroke="rgb(255,204,0)">
      <rect x="366" width="98" height="26" y="121" clip-path="url(#clipPath2)" stroke="none"/>
      <rect x="365" y="120" clip-path="url(#clipPath2)" fill="yellow" width="1" height="28" stroke="none"/>
      <rect x="366" y="120" clip-path="url(#clipPath2)" fill="yellow" width="98" height="1" stroke="none"/>
      <rect x="366" y="147" clip-path="url(#clipPath2)" fill="rgb(178,142,0)" width="99" height="1" stroke="none"/>
      <rect x="464" y="120" clip-path="url(#clipPath2)" fill="rgb(178,142,0)" width="1" height="27" stroke="none"/>
    </g>
    <g font-size="13px" stroke-linecap="butt" transform="matrix(1,0,0,1,-195,-51)" text-rendering="geometricPrecision" font-family="sans-serif" shape-rendering="geometricPrecision" font-weight="bold" stroke-miterlimit="1.45">
      <text x="374.905" xml:space="preserve" y="137.0669" clip-path="url(#clipPath6)" stroke="none">Paintbrush</text>
      <path fill="none" d="M300.1501 120.0122 L367.2647 96.6304" clip-path="url(#clipPath2)"/>
      <path d="M374.8194 93.9984 L361.8424 93.2247 L366.3204 96.9594 L365.1324 102.668 Z" stroke="none" clip-path="url(#clipPath2)"/>
      <path fill="none" d="M295.0037 148.0015 L372.5635 179.0254" clip-path="url(#clipPath2)"/>
      <path d="M379.9913 181.9965 L370.7065 172.8974 L371.635 178.654 L366.9926 182.1822 Z" stroke="none" clip-path="url(#clipPath2)"/>
      <path fill="none" d="M309.989 134 L356.9814 134" clip-path="url(#clipPath2)"/>
      <path d="M364.9814 134 L352.9814 129 L355.9814 134 L352.9814 139 Z" stroke="none" clip-path="url(#clipPath2)"/>
    </g>
  </g>
</svg>
