<?xml version="1.0" encoding="UTF-8"?><svg xmlns="http://www.w3.org/2000/svg" xmlns:xlink="http://www.w3.org/1999/xlink" fill-opacity="1" color-rendering="auto" color-interpolation="auto" text-rendering="auto" stroke="black" stroke-linecap="square" width="500" stroke-miterlimit="10" shape-rendering="auto" stroke-opacity="1" fill="black" stroke-dasharray="none" font-weight="normal" stroke-width="1" height="433" font-family="'Dialog'" font-style="normal" stroke-linejoin="miter" font-size="12px" stroke-dashoffset="0" image-rendering="auto">
  <!--Generated by ySVG 2.5-->
  <defs id="genericDefs"/>
  <g>
    <defs id="defs1">
      <clipPath clipPathUnits="userSpaceOnUse" id="clipPath1">
        <path d="M0 0 L500 0 L500 433 L0 433 L0 0 Z"/>
      </clipPath>
      <clipPath clipPathUnits="userSpaceOnUse" id="clipPath2">
        <path d="M520 168 L1020 168 L1020 601 L520 601 L520 168 Z"/>
      </clipPath>
    </defs>
    <g fill="white" text-rendering="geometricPrecision" shape-rendering="geometricPrecision" transform="translate(-520,-168)" stroke="white">
      <rect x="520" width="500" height="433" y="168" clip-path="url(#clipPath2)" stroke="none"/>
    </g>
    <g text-rendering="geometricPrecision" stroke-miterlimit="1.45" shape-rendering="geometricPrecision" transform="matrix(1,0,0,1,-520,-168)" stroke-linecap="butt">
      <path fill="none" d="M717.9155 220.8828 L646.4112 276.2209" clip-path="url(#clipPath2)"/>
      <path d="M640.0845 281.1172 L652.6347 277.727 L647.202 275.6089 L646.5143 269.8186 Z" clip-path="url(#clipPath2)" stroke="none"/>
      <path fill="none" d="M607.9225 403.6808 L576.6995 447.7896" clip-path="url(#clipPath2)"/>
      <path d="M572.0775 454.3192 L583.0916 447.4135 L577.2773 446.9734 L574.9296 441.6359 Z" clip-path="url(#clipPath2)" stroke="none"/>
      <path fill="none" d="M633.3552 404.7905 L657.6091 446.3021" clip-path="url(#clipPath2)"/>
      <path d="M661.6448 453.2095 L659.9083 440.326 L657.1046 445.4386 L651.274 445.3707 Z" clip-path="url(#clipPath2)" stroke="none"/>
      <path fill="none" d="M621.5 319 L621.5 353" clip-path="url(#clipPath2)"/>
      <path d="M621.5 361 L626.5 349 L621.5 352 L616.5 349 Z" clip-path="url(#clipPath2)" stroke="none"/>
      <path fill="none" d="M866.9889 313.1732 L908.7383 360.8103" clip-path="url(#clipPath2)"/>
      <path d="M914.0111 366.8268 L909.8621 354.5066 L908.0792 360.0583 L902.3416 361.0976 Z" clip-path="url(#clipPath2)" stroke="none"/>
      <path fill="none" d="M915.9225 492.6808 L884.6995 536.7896" clip-path="url(#clipPath2)"/>
      <path d="M880.0775 543.3192 L891.0916 536.4135 L885.2773 535.9733 L882.9295 530.6359 Z" clip-path="url(#clipPath2)" stroke="none"/>
      <path fill="none" d="M941.3552 493.7905 L965.6091 535.3021" clip-path="url(#clipPath2)"/>
      <path d="M969.6448 542.2095 L967.9083 529.326 L965.1046 534.4386 L959.274 534.3707 Z" clip-path="url(#clipPath2)" stroke="none"/>
      <path fill="none" d="M929.5 408 L929.5 442" clip-path="url(#clipPath2)"/>
      <path d="M929.5 450 L934.5 438 L929.5 441 L924.5 438 Z" clip-path="url(#clipPath2)" stroke="none"/>
      <path fill="none" d="M755.0845 220.8828 L826.5888 276.2209" clip-path="url(#clipPath2)"/>
      <path d="M832.9155 281.1172 L826.4857 269.8186 L825.798 275.6089 L820.3653 277.727 Z" clip-path="url(#clipPath2)" stroke="none"/>
      <path fill="none" d="M837.4338 314.3253 L803.8546 359.266" clip-path="url(#clipPath2)"/>
      <path d="M799.0662 365.6747 L810.2543 359.0545 L804.4532 358.4649 L802.2435 353.0689 Z" clip-path="url(#clipPath2)" stroke="none"/>
    </g>
    <g fill="white" text-rendering="geometricPrecision" shape-rendering="geometricPrecision" transform="matrix(1,0,0,1,-520,-168)" stroke="white">
      <circle r="23.5" clip-path="url(#clipPath2)" cx="621.5" cy="295.5" stroke="none"/>
    </g>
    <g text-rendering="geometricPrecision" stroke-miterlimit="1.45" shape-rendering="geometricPrecision" transform="matrix(1,0,0,1,-520,-168)" stroke-linecap="butt">
      <circle fill="none" r="23.5" clip-path="url(#clipPath2)" cx="621.5" cy="295.5"/>
      <text x="611.4717" font-size="14px" y="300.3467" clip-path="url(#clipPath2)" font-family="sans-serif" stroke="none" xml:space="preserve">sin</text>
    </g>
    <g fill="white" text-rendering="geometricPrecision" shape-rendering="geometricPrecision" transform="matrix(1,0,0,1,-520,-168)" stroke="white">
      <circle r="23.5" clip-path="url(#clipPath2)" cx="558.5" cy="473.5" stroke="none"/>
    </g>
    <g text-rendering="geometricPrecision" stroke-miterlimit="1.45" shape-rendering="geometricPrecision" transform="matrix(1,0,0,1,-520,-168)" stroke-linecap="butt">
      <circle fill="none" r="23.5" clip-path="url(#clipPath2)" cx="558.5" cy="473.5"/>
      <text x="542.9141" font-size="14px" y="478.3467" clip-path="url(#clipPath2)" font-family="sans-serif" stroke="none" xml:space="preserve">1.33</text>
    </g>
    <g fill="white" text-rendering="geometricPrecision" shape-rendering="geometricPrecision" transform="matrix(1,0,0,1,-520,-168)" stroke="white">
      <circle r="23.5" clip-path="url(#clipPath2)" cx="673.5" cy="473.5" stroke="none"/>
    </g>
    <g text-rendering="geometricPrecision" stroke-miterlimit="1.45" shape-rendering="geometricPrecision" transform="matrix(1,0,0,1,-520,-168)" stroke-linecap="butt">
      <circle fill="none" r="23.5" clip-path="url(#clipPath2)" cx="673.5" cy="473.5"/>
      <text x="669.3574" font-size="14px" y="478.3467" clip-path="url(#clipPath2)" font-family="sans-serif" stroke="none" xml:space="preserve">x</text>
    </g>
    <g fill="white" text-rendering="geometricPrecision" shape-rendering="geometricPrecision" transform="matrix(1,0,0,1,-520,-168)" stroke="white">
      <circle r="23.5" clip-path="url(#clipPath2)" cx="621.5" cy="384.5" stroke="none"/>
    </g>
    <g text-rendering="geometricPrecision" stroke-miterlimit="1.45" shape-rendering="geometricPrecision" transform="matrix(1,0,0,1,-520,-168)" stroke-linecap="butt">
      <circle fill="none" r="23.5" clip-path="url(#clipPath2)" cx="621.5" cy="384.5"/>
      <text x="618" font-size="14px" y="389.3467" clip-path="url(#clipPath2)" font-family="sans-serif" stroke="none" xml:space="preserve">*</text>
    </g>
    <g fill="white" text-rendering="geometricPrecision" shape-rendering="geometricPrecision" transform="matrix(1,0,0,1,-520,-168)" stroke="white">
      <circle r="23.5" clip-path="url(#clipPath2)" cx="929.5" cy="384.5" stroke="none"/>
    </g>
    <g text-rendering="geometricPrecision" stroke-miterlimit="1.45" shape-rendering="geometricPrecision" transform="matrix(1,0,0,1,-520,-168)" stroke-linecap="butt">
      <circle fill="none" r="23.5" clip-path="url(#clipPath2)" cx="929.5" cy="384.5"/>
      <text x="917.7217" font-size="14px" y="389.3467" clip-path="url(#clipPath2)" font-family="sans-serif" stroke="none" xml:space="preserve">cos</text>
    </g>
    <g fill="white" text-rendering="geometricPrecision" shape-rendering="geometricPrecision" transform="matrix(1,0,0,1,-520,-168)" stroke="white">
      <circle r="23.5" clip-path="url(#clipPath2)" cx="866.5" cy="562.5" stroke="none"/>
    </g>
    <g text-rendering="geometricPrecision" stroke-miterlimit="1.45" shape-rendering="geometricPrecision" transform="matrix(1,0,0,1,-520,-168)" stroke-linecap="butt">
      <circle fill="none" r="23.5" clip-path="url(#clipPath2)" cx="866.5" cy="562.5"/>
      <text x="855.3677" font-size="14px" y="567.3467" clip-path="url(#clipPath2)" font-family="sans-serif" stroke="none" xml:space="preserve">6.7</text>
    </g>
    <g fill="white" text-rendering="geometricPrecision" shape-rendering="geometricPrecision" transform="matrix(1,0,0,1,-520,-168)" stroke="white">
      <circle r="23.5" clip-path="url(#clipPath2)" cx="981.5" cy="562.5" stroke="none"/>
    </g>
    <g text-rendering="geometricPrecision" stroke-miterlimit="1.45" shape-rendering="geometricPrecision" transform="matrix(1,0,0,1,-520,-168)" stroke-linecap="butt">
      <circle fill="none" r="23.5" clip-path="url(#clipPath2)" cx="981.5" cy="562.5"/>
      <text x="977.3574" font-size="14px" y="567.3467" clip-path="url(#clipPath2)" font-family="sans-serif" stroke="none" xml:space="preserve">x</text>
    </g>
    <g fill="white" text-rendering="geometricPrecision" shape-rendering="geometricPrecision" transform="matrix(1,0,0,1,-520,-168)" stroke="white">
      <circle r="23.5" clip-path="url(#clipPath2)" cx="929.5" cy="473.5" stroke="none"/>
    </g>
    <g text-rendering="geometricPrecision" stroke-miterlimit="1.45" shape-rendering="geometricPrecision" transform="matrix(1,0,0,1,-520,-168)" stroke-linecap="butt">
      <circle fill="none" r="23.5" clip-path="url(#clipPath2)" cx="929.5" cy="473.5"/>
      <text x="926" font-size="14px" y="478.3467" clip-path="url(#clipPath2)" font-family="sans-serif" stroke="none" xml:space="preserve">*</text>
    </g>
    <g fill="white" text-rendering="geometricPrecision" shape-rendering="geometricPrecision" transform="matrix(1,0,0,1,-520,-168)" stroke="white">
      <circle r="23.5" clip-path="url(#clipPath2)" cx="736.5" cy="206.5" stroke="none"/>
    </g>
    <g text-rendering="geometricPrecision" stroke-miterlimit="1.45" shape-rendering="geometricPrecision" transform="matrix(1,0,0,1,-520,-168)" stroke-linecap="butt">
      <circle fill="none" r="23.5" clip-path="url(#clipPath2)" cx="736.5" cy="206.5"/>
      <text x="730.6348" font-size="14px" y="211.3467" clip-path="url(#clipPath2)" font-family="sans-serif" stroke="none" xml:space="preserve">+</text>
    </g>
    <g fill="white" text-rendering="geometricPrecision" shape-rendering="geometricPrecision" transform="matrix(1,0,0,1,-520,-168)" stroke="white">
      <circle r="23.5" clip-path="url(#clipPath2)" cx="851.5" cy="295.5" stroke="none"/>
    </g>
    <g text-rendering="geometricPrecision" stroke-miterlimit="1.45" shape-rendering="geometricPrecision" transform="matrix(1,0,0,1,-520,-168)" stroke-linecap="butt">
      <circle fill="none" r="23.5" clip-path="url(#clipPath2)" cx="851.5" cy="295.5"/>
      <text x="848" font-size="14px" y="300.3467" clip-path="url(#clipPath2)" font-family="sans-serif" stroke="none" xml:space="preserve">*</text>
    </g>
    <g fill="white" text-rendering="geometricPrecision" shape-rendering="geometricPrecision" transform="matrix(1,0,0,1,-520,-168)" stroke="white">
      <circle r="23.5" clip-path="url(#clipPath2)" cx="785" cy="384.5" stroke="none"/>
    </g>
    <g text-rendering="geometricPrecision" stroke-miterlimit="1.45" shape-rendering="geometricPrecision" transform="matrix(1,0,0,1,-520,-168)" stroke-linecap="butt">
      <circle fill="none" r="23.5" clip-path="url(#clipPath2)" cx="785" cy="384.5"/>
      <text x="769.4141" font-size="14px" y="389.3467" clip-path="url(#clipPath2)" font-family="sans-serif" stroke="none" xml:space="preserve">0.25</text>
    </g>
  </g>
</svg>
