<?xml version="1.0" encoding="UTF-8"?><svg xmlns="http://www.w3.org/2000/svg" xmlns:xlink="http://www.w3.org/1999/xlink" fill-opacity="1" color-rendering="auto" color-interpolation="auto" text-rendering="auto" stroke="black" stroke-linecap="square" width="260" stroke-miterlimit="10" shape-rendering="auto" stroke-opacity="1" fill="black" stroke-dasharray="none" font-weight="normal" stroke-width="1" height="145" font-family="'Dialog'" font-style="normal" stroke-linejoin="miter" font-size="12px" stroke-dashoffset="0" image-rendering="auto">
  <!--Generated by ySVG 2.6-->
  <defs id="genericDefs"/>
  <g>
    <defs id="defs1">
      <clipPath clipPathUnits="userSpaceOnUse" id="clipPath1">
        <path d="M0 0 L260 0 L260 145 L0 145 L0 0 Z"/>
      </clipPath>
      <clipPath clipPathUnits="userSpaceOnUse" id="clipPath2">
        <path d="M82 76 L342 76 L342 221 L82 221 L82 76 Z"/>
      </clipPath>
      <clipPath clipPathUnits="userSpaceOnUse" id="clipPath3">
        <path d="M165 91 L165 119 L265 119 L265 91 Z"/>
      </clipPath>
      <clipPath clipPathUnits="userSpaceOnUse" id="clipPath4">
        <path d="M97 178 L97 206 L197 206 L197 178 Z"/>
      </clipPath>
      <clipPath clipPathUnits="userSpaceOnUse" id="clipPath5">
        <path d="M227 178 L227 206 L327 206 L327 178 Z"/>
      </clipPath>
    </defs>
    <g fill="white" text-rendering="geometricPrecision" shape-rendering="geometricPrecision" transform="translate(-82,-76)" stroke="white">
      <rect x="82" width="260" height="145" y="76" clip-path="url(#clipPath2)" stroke="none"/>
    </g>
    <g fill="rgb(255,204,0)" text-rendering="geometricPrecision" shape-rendering="geometricPrecision" transform="matrix(1,0,0,1,-82,-76)" stroke="rgb(255,204,0)">
      <rect x="166" width="98" height="26" y="92" clip-path="url(#clipPath2)" stroke="none"/>
      <rect x="165" y="91" clip-path="url(#clipPath2)" fill="yellow" width="1" height="28" stroke="none"/>
      <rect x="166" y="91" clip-path="url(#clipPath2)" fill="yellow" width="98" height="1" stroke="none"/>
      <rect x="166" y="118" clip-path="url(#clipPath2)" fill="rgb(178,142,0)" width="99" height="1" stroke="none"/>
      <rect x="264" y="91" clip-path="url(#clipPath2)" fill="rgb(178,142,0)" width="1" height="27" stroke="none"/>
    </g>
    <g font-size="13px" stroke-linecap="butt" transform="matrix(1,0,0,1,-82,-76)" text-rendering="geometricPrecision" font-family="sans-serif" shape-rendering="geometricPrecision" font-weight="bold" stroke-miterlimit="1.45">
      <text x="189.7268" xml:space="preserve" y="108.0669" clip-path="url(#clipPath3)" stroke="none">Animal</text>
    </g>
    <g fill="rgb(255,204,0)" text-rendering="geometricPrecision" shape-rendering="geometricPrecision" transform="matrix(1,0,0,1,-82,-76)" stroke="rgb(255,204,0)">
      <rect x="98" width="98" height="26" y="179" clip-path="url(#clipPath2)" stroke="none"/>
      <rect x="97" y="178" clip-path="url(#clipPath2)" fill="yellow" width="1" height="28" stroke="none"/>
      <rect x="98" y="178" clip-path="url(#clipPath2)" fill="yellow" width="98" height="1" stroke="none"/>
      <rect x="98" y="205" clip-path="url(#clipPath2)" fill="rgb(178,142,0)" width="99" height="1" stroke="none"/>
      <rect x="196" y="178" clip-path="url(#clipPath2)" fill="rgb(178,142,0)" width="1" height="27" stroke="none"/>
    </g>
    <g font-size="13px" stroke-linecap="butt" transform="matrix(1,0,0,1,-82,-76)" text-rendering="geometricPrecision" font-family="sans-serif" shape-rendering="geometricPrecision" font-weight="bold" stroke-miterlimit="1.45">
      <text x="132.4861" xml:space="preserve" y="195.0669" clip-path="url(#clipPath4)" stroke="none">Dog</text>
    </g>
    <g fill="rgb(255,204,0)" text-rendering="geometricPrecision" shape-rendering="geometricPrecision" transform="matrix(1,0,0,1,-82,-76)" stroke="rgb(255,204,0)">
      <rect x="228" width="98" height="26" y="179" clip-path="url(#clipPath2)" stroke="none"/>
      <rect x="227" y="178" clip-path="url(#clipPath2)" fill="yellow" width="1" height="28" stroke="none"/>
      <rect x="228" y="178" clip-path="url(#clipPath2)" fill="yellow" width="98" height="1" stroke="none"/>
      <rect x="228" y="205" clip-path="url(#clipPath2)" fill="rgb(178,142,0)" width="99" height="1" stroke="none"/>
      <rect x="326" y="178" clip-path="url(#clipPath2)" fill="rgb(178,142,0)" width="1" height="27" stroke="none"/>
    </g>
    <g font-size="13px" stroke-linecap="butt" transform="matrix(1,0,0,1,-82,-76)" text-rendering="geometricPrecision" font-family="sans-serif" shape-rendering="geometricPrecision" font-weight="bold" stroke-miterlimit="1.45">
      <text x="264.7363" xml:space="preserve" y="195.0669" clip-path="url(#clipPath5)" stroke="none">Cat</text>
      <path fill="none" d="M157.9404 178.0027 L194.8133 130.8271" clip-path="url(#clipPath2)"/>
    </g>
    <g stroke-linecap="butt" transform="matrix(1,0,0,1,-82,-76)" fill="white" text-rendering="geometricPrecision" shape-rendering="geometricPrecision" stroke="white" stroke-miterlimit="1.45">
      <path d="M204.0506 119.0088 L189.4701 127.9201 L198.9248 135.3099 Z" stroke="none" clip-path="url(#clipPath2)"/>
      <path fill="none" d="M204.0506 119.0088 L189.4701 127.9201 L198.9248 135.3099 Z" clip-path="url(#clipPath2)" stroke="black"/>
      <path fill="none" d="M267.0249 178.0027 L233.6886 131.2243" clip-path="url(#clipPath2)" stroke="black"/>
      <path d="M224.9833 119.0088 L229.3827 135.5208 L239.1551 128.5566 Z" clip-path="url(#clipPath2)" stroke="none"/>
      <path fill="none" d="M224.9833 119.0088 L229.3827 135.5208 L239.1551 128.5566 Z" clip-path="url(#clipPath2)" stroke="black"/>
    </g>
  </g>
</svg>
